<svg xmlns="http://www.w3.org/2000/svg" width="12.31" height="20.12" viewBox="0 0 12.31 20.12">
  <metadata><?xpacket begin="﻿" id="W5M0MpCehiHzreSzNTczkc9d"?>
<x:xmpmeta xmlns:x="adobe:ns:meta/" x:xmptk="Adobe XMP Core 5.6-c138 79.159824, 2016/09/14-01:09:01        ">
   <rdf:RDF xmlns:rdf="http://www.w3.org/1999/02/22-rdf-syntax-ns#">
      <rdf:Description rdf:about=""/>
   </rdf:RDF>
</x:xmpmeta>
                                                                                                    
                                                                                                    
                                                                                                    
                                                                                                    
                                                                                                    
                                                                                                    
                                                                                                    
                                                                                                    
                                                                                                    
                                                                                                    
                                                                                                    
                                                                                                    
                                                                                                    
                                                                                                    
                                                                                                    
                                                                                                    
                                                                                                    
                                                                                                    
                                                                                                    
                                                                                                    
                           
<?xpacket end="w"?></metadata>
<defs>
    <style>
      .cls-1 {
        fill: #006cd1;
        fill-rule: evenodd;
      }
    </style>
  </defs>
  <path class="cls-1" d="M1025.39,6497.05a8.1,8.1,0,0,1-4.25-1.49,5.283,5.283,0,0,1-.44-0.36,1.17,1.17,0,0,1-.17-1.69,1.232,1.232,0,0,1,1.61-.35,2.5,2.5,0,0,1,.35.21,7.083,7.083,0,0,0,7.73.06,2.047,2.047,0,0,1,.75-0.38,1.182,1.182,0,0,1,1.35.53,1.11,1.11,0,0,1-.08,1.48,6.4,6.4,0,0,1-2.25,1.43,11.364,11.364,0,0,1-2.55.56c0.13,0.14.19,0.21,0.28,0.29q1.77,1.74,3.54,3.49a1.135,1.135,0,0,1,.27,1.35,1.405,1.405,0,0,1-1.32.8,1.3,1.3,0,0,1-.83-0.41c-0.89-.88-1.8-1.75-2.67-2.64-0.25-.26-0.38-0.21-0.6.01-0.9.91-1.81,1.8-2.72,2.69a1.156,1.156,0,0,1-1.38.24,1.374,1.374,0,0,1-.81-1.26,1.276,1.276,0,0,1,.43-0.85q1.755-1.71,3.5-3.44a3.539,3.539,0,0,0,.26-0.27h0Zm0,0,0.97-3.99a5.1,5.1,0,1,1,5.23-5.03,5.143,5.143,0,0,1-5.23,5.03h0Zm2.58-5.1a2.541,2.541,0,1,0-2.52,2.5,2.5,2.5,0,0,0,2.52-2.5h0Zm0,0" transform="translate(-1020.25 -6482.88)"/>
</svg>
