<svg xmlns="http://www.w3.org/2000/svg" width="142.687" height="17.281" viewBox="0 0 142.687 17.281">
  <metadata><?xpacket begin="﻿" id="W5M0MpCehiHzreSzNTczkc9d"?>
<x:xmpmeta xmlns:x="adobe:ns:meta/" x:xmptk="Adobe XMP Core 5.6-c138 79.159824, 2016/09/14-01:09:01        ">
   <rdf:RDF xmlns:rdf="http://www.w3.org/1999/02/22-rdf-syntax-ns#">
      <rdf:Description rdf:about=""/>
   </rdf:RDF>
</x:xmpmeta>
                                                                                                    
                                                                                                    
                                                                                                    
                                                                                                    
                                                                                                    
                                                                                                    
                                                                                                    
                                                                                                    
                                                                                                    
                                                                                                    
                                                                                                    
                                                                                                    
                                                                                                    
                                                                                                    
                                                                                                    
                                                                                                    
                                                                                                    
                                                                                                    
                                                                                                    
                                                                                                    
                           
<?xpacket end="w"?></metadata>
<defs>
    <style>
      .cls-1 {
        fill: #231f20;
        fill-rule: evenodd;
      }
    </style>
  </defs>
  <path id="Текст" class="cls-1" d="M586.424,55.723h-2.677v0.2a1.906,1.906,0,0,1,1.943,2.092V68.164l-11.337-12.47H569.16v0.224a4.5,4.5,0,0,1,3.29,1.772V69.876a1.906,1.906,0,0,1-1.944,2.092v0.2h5.254v-0.2a1.905,1.905,0,0,1-1.943-2.092V59.1c1.365,1.427,4.691,5,5.729,6.1,1.244,1.315,6.286,7.235,6.286,7.235l1.224-.508V58.015A1.907,1.907,0,0,1,589,55.922v-0.2h-2.576Zm-54.43,15.244H530.2a2.053,2.053,0,0,1-2.165-1.82V57.975a1.9,1.9,0,0,1,1.943-2.087v-0.2h-6.428v0.2a1.906,1.906,0,0,1,1.944,2.087v11.89a1.9,1.9,0,0,1-1.944,2.087v0.2h6.428V72.145h2.106a2.782,2.782,0,0,0,2.808-2.779A3.5,3.5,0,0,1,531.994,70.967Zm14.955-15.284H536.791a2.625,2.625,0,0,1-1.533-.315s-0.349,2.958-.471,3.557h0.228A2.68,2.68,0,0,1,537.7,56.8H540.6V69.851a1.909,1.909,0,0,1-1.943,2.1v0.2h6.427v-0.2a1.908,1.908,0,0,1-1.942-2.1V56.8h2.535c2.824,0,2.52,2.13,2.52,2.13h0.289A15.072,15.072,0,0,1,549,55.279,4.107,4.107,0,0,1,546.949,55.683Zm12.275-.11c-5.009,0-8.906,3.807-8.705,8.5s3.5,8.5,9.058,8.5a8.751,8.751,0,0,0,8.867-8.813C568.243,59.067,565.4,55.574,559.224,55.574Zm1.123,16.087c-4.2,0-6.419-3.423-6.894-7.645s1.84-7.647,5.171-7.647c4.111,0,6.419,3.423,6.895,7.647S563.679,71.661,560.347,71.661ZM515.8,55.693h-2.677v0.2a1.9,1.9,0,0,1,1.943,2.088V69.864a1.9,1.9,0,0,1-1.943,2.087v0.2h6.427v-0.2a1.9,1.9,0,0,1-1.943-2.087V57.979a1.9,1.9,0,0,1,1.943-2.088v-0.2H515.8Zm-7.24,14.17c-0.488-2.226-1.379-10.852-1.379-10.852s-0.375-1.952.324-2.549A1.754,1.754,0,0,1,508.887,56V55.674h-4.159L498.76,67.836s-4.524-8.555-6.012-12.192h-4.829v0.313a3.578,3.578,0,0,1,2.3,1.144l-1.738,12.783a2.317,2.317,0,0,1-2.571,2.027v0.279h5.567V71.91a1.477,1.477,0,0,1-1.478-1.928l1.357-10.948c1.111,2,2.723,5.066,3.826,7.46,1.579,3.428,2.855,6.081,2.855,6.081s3.8-7.869,4.888-10.165a22.089,22.089,0,0,1,1.67-3.085s1.215,8.391,1.215,10.538-1.488,2.087-1.488,2.087v0.2H510.4v-0.2S509.022,71.961,508.561,69.864Zm-48.149-14.17h-2.678v0.2a1.9,1.9,0,0,1,1.943,2.088V62.8H450.8V57.979a1.9,1.9,0,0,1,1.943-2.088v-0.2h-6.427v0.2a1.9,1.9,0,0,1,1.943,2.088V69.864a1.9,1.9,0,0,1-1.943,2.087v0.2h6.427v-0.2a1.9,1.9,0,0,1-1.943-2.087V63.99h8.877v5.873a1.9,1.9,0,0,1-1.943,2.087v0.2h6.428v-0.2a1.9,1.9,0,0,1-1.944-2.087V57.979a1.905,1.905,0,0,1,1.944-2.088v-0.2h-3.75ZM482.893,69.86c-1.194-2.37-3.568-7.732-3.568-7.732l-2.611-6.439h-4.4v0.389s2.572-.25,1.656,1.65c-0.736,1.527-5.735,12.107-5.735,12.107s-1.033,2.04-2.571,2.04v0.281h5.567V71.875s-1.68,0-1.377-1.18c0.122-.472.977-2.535,1.959-4.838h6.573a39.807,39.807,0,0,1,1.591,4.148c0.56,2.088-1.144,1.91-1.144,1.91v0.2h6.428v-0.2A3.312,3.312,0,0,1,482.893,69.86Zm-10.587-5.166c1.341-3.123,2.727-6.276,2.727-6.276s1.489,3.165,2.847,6.276h-5.574Z" transform="translate(-446.313 -55.281)"/>
</svg>
