<svg xmlns="http://www.w3.org/2000/svg" width="25.532" height="13.406" viewBox="0 0 25.532 13.406">
  <metadata><?xpacket begin="﻿" id="W5M0MpCehiHzreSzNTczkc9d"?>
<x:xmpmeta xmlns:x="adobe:ns:meta/" x:xmptk="Adobe XMP Core 5.6-c138 79.159824, 2016/09/14-01:09:01        ">
   <rdf:RDF xmlns:rdf="http://www.w3.org/1999/02/22-rdf-syntax-ns#">
      <rdf:Description rdf:about=""/>
   </rdf:RDF>
</x:xmpmeta>
                                                                                                    
                                                                                                    
                                                                                                    
                                                                                                    
                                                                                                    
                                                                                                    
                                                                                                    
                                                                                                    
                                                                                                    
                                                                                                    
                                                                                                    
                                                                                                    
                                                                                                    
                                                                                                    
                                                                                                    
                                                                                                    
                                                                                                    
                                                                                                    
                                                                                                    
                                                                                                    
                           
<?xpacket end="w"?></metadata>
<defs>
    <style>
      .cls-1 {
        fill: #231f20;
        fill-rule: evenodd;
      }
    </style>
  </defs>
  <path class="cls-1" d="M433.3,46.394l-6.5,2.016a1.808,1.808,0,0,1,.82,2.149,1.863,1.863,0,0,1-1.916,1.2,4.171,4.171,0,0,1-2.358-.75,2.637,2.637,0,0,1-1.219-1.831c-0.086-.969.525-2.02,1.818-3.12l0.135-.115L420.545,42l-3.538,3.952,0.135,0.115c1.291,1.1,1.9,2.148,1.818,3.117a2.671,2.671,0,0,1-1.24,1.849,4.162,4.162,0,0,1-2.338.735,1.81,1.81,0,0,1-1.915-1.2,1.63,1.63,0,0,1,.82-2.149l-6.5-2.016,0.266,0.4a16.677,16.677,0,0,1,2.414,8.361l0,0.249,0.235-.083a32.18,32.18,0,0,1,19.686,0l0.234,0.083,0-.249a16.665,16.665,0,0,1,2.414-8.361Z" transform="translate(-407.781 -42)"/>
</svg>
